:FULLY-SPECIFIED
:FORCE-ALL-JOINTS-BE-3DOF
:DEGREES
238
root 5.55879 15.6317 -25.8249 9.73063 23.9421 -8.07345
lfemur -43.0044 35.6148 -7.19351
ltibia 54.2935 0 0
lfoot -13.9761 9.48304 0
ltoes -4.8794 0 0
rfemur -16.3387 -12.128 5.31896
rtibia 32.9265 0 0
rfoot -39.4737 -8.99966 0
rtoes 56.5812 0 0
lowerback 1.08186 -2.35679 3.27557
upperback -1.36051 -2.99686 3.83447
thorax -1.96732 -1.51037 2.19125
lowerneck -10.3224 -1.92159 -0.109577
upperneck 1.403 -2.52295 -0.374789
head 2.21655 -1.26761 -0.227069
lclavicle 5.06724e-14 2.86024e-14 0
lhumerus -55.1563 -32.6329 122.347
lradius 63.0512 0 0
lwrist 19.8827 0 0
lhand 5.54224 13.5872 0
lfingers 7.12502 0 0
lthumb 30.8857 40.998 0
rclavicle 5.06724e-14 2.86024e-14 0
rhumerus -34.6319 -25.1161 -69.4133
rradius 100.599 0 0
rwrist -59.6156 0 0
rhand -10.5799 -21.3012 0
rfingers 7.12502 0 0
rthumb 15.3689 -770.118 0
239
root 5.65072 15.6591 -25.8088 9.48089 25.5105 -8.1511
lfemur -43.2429 35.3468 -8.07462
ltibia 53.9091 0 0
lfoot -14.513 9.37744 0
ltoes -2.10601 0 0
rfemur -14.8992 -10.2826 5.15916
rtibia 32.1184 0 0
rfoot -40.7955 -11.5138 0
rtoes 56.3217 0 0
lowerback 1.02484 -2.4563 3.27099
upperback -1.44752 -3.12374 4.03554
thorax -2.013 -1.57213 2.40466
lowerneck -10.1156 -2.13247 -0.153872
upperneck 1.56112 -2.79665 -0.415299
head 2.23092 -1.40564 -0.245059
lclavicle 6.46299e-14 2.39536e-14 0
lhumerus -55.4307 -31.9108 122.567
lradius 63.2928 0 0
lwrist 19.6704 0 0
lhand 4.50578 12.9986 0
lfingers 7.12502 0 0
lthumb 29.8985 40.6042 0
rclavicle 6.46299e-14 2.39536e-14 0
rhumerus -34.8345 -27.2777 -68.8819
rradius 98.4128 0 0
rwrist -61.62 0 0
rhand -18.9446 -20.7622 0
rfingers 7.12502 0 0
rthumb 7.35864 -770.614 0
240
root 5.75486 15.6915 -25.7931 9.27382 27.1931 -7.952
lfemur -42.9346 34.5509 -8.74046
ltibia 53.2378 0 0
lfoot -15.203 8.49905 0
ltoes 1.5709 0 0
rfemur -13.6757 -8.19602 4.94703
rtibia 31.8904 0 0
rfoot -41.9272 -13.9702 0
rtoes 56.2214 0 0
lowerback 0.934294 -2.55753 3.12265
upperback -1.48698 -3.26382 4.04938
thorax -1.99043 -1.6396 2.5016
lowerneck -9.97305 -2.44205 -0.106977
upperneck 1.70804 -3.21889 -0.337227
head 2.25361 -1.61295 -0.248387
lclavicle 4.12985e-14 1.3671e-14 0
lhumerus -55.6653 -31.7112 122.692
lradius 63.3488 0 0
lwrist 19.1159 0 0
lhand 4.03243 12.5225 0
lfingers 7.12502 0 0
lthumb 29.4465 40.207 0
rclavicle 4.12985e-14 1.3671e-14 0
rhumerus -35.2668 -27.0809 -68.2174
rradius 94.9529 0 0
rwrist -57.5476 0 0
rhand -23.755 -22.6436 0
rfingers 7.12502 0 0
rthumb 2.71333 -772.518 0
241
root 5.87097 15.7282 -25.7771 9.08814 29.0528 -7.67615
lfemur -42.5604 33.5823 -9.46366
ltibia 52.4848 0 0
lfoot -15.8705 7.45568 0
ltoes 5.85315 0 0
rfemur -12.517 -6.04984 4.72713
rtibia 31.9468 0 0
rfoot -42.7925 -16.5448 0
rtoes 56.1371 0 0
lowerback 0.824901 -2.65733 2.9513
upperback -1.51489 -3.40455 4.02434
thorax -1.94593 -1.70741 2.56945
lowerneck -9.84977 -2.81131 -0.0627487
upperneck 1.84502 -3.72177 -0.229387
head 2.27739 -1.85936 -0.245955
lclavicle 3.49238e-14 2.67898e-15 0
lhumerus -55.8471 -31.6339 122.776
lradius 63.3595 0 0
lwrist 18.5551 0 0
lhand 3.7099 12.148 0
lfingers 7.12502 0 0
lthumb 29.1386 39.8863 0
rclavicle 3.49238e-14 2.67898e-15 0
rhumerus -35.8105 -26.3462 -67.5365
rradius 90.754 0 0
rwrist -50.8498 0 0
rhand -26.7447 -25.2432 0
rfingers 7.12502 0 0
rthumb -0.173805 -775.136 0
242
root 5.99461 15.7679 -25.7614 8.92856 31.0171 -7.33878
lfemur -42.1386 32.4901 -10.2215
ltibia 51.6795 0 0
lfoot -16.495 6.30281 0
ltoes 10.5456 0 0
rfemur -11.4645 -3.92721 4.50374
rtibia 32.2813 0 0
rfoot -43.3261 -19.1591 0
rtoes 56.0576 0 0
lowerback 0.702964 -2.75194 2.76408
upperback -1.53048 -3.5403 3.96686
thorax -1.8825 -1.77282 2.61113
lowerneck -9.74933 -3.22353 -0.027412
upperneck 1.96846 -4.28189 -0.0990377
head 2.30183 -2.13351 -0.237946
lclavicle 3.6402e-14 -7.99136e-15 0
lhumerus -55.9666 -31.664 122.815
lradius 63.3287 0 0
lwrist 18.0199 0 0
lhand 3.5312 11.8797 0
lfingers 7.12502 0 0
lthumb 28.9679 39.6479 0
rclavicle 3.6402e-14 -7.99136e-15 0
rhumerus -36.4414 -25.1832 -66.8531
rradius 86.0216 0 0
rwrist -42.043 0 0
rhand -28.0434 -28.0812 0
rfingers 7.12502 0 0
rthumb -1.42791 -777.988 0
243
root 6.12132 15.8093 -25.7467 8.79977 33.0137 -6.95511
lfemur -41.6877 31.3237 -10.9913
ltibia 50.8512 0 0
lfoot -17.0561 5.0959 0
ltoes 15.4533 0 0
rfemur -10.5596 -1.91128 4.28115
rtibia 32.8878 0 0
rfoot -43.4631 -21.7349 0
rtoes 55.9719 0 0
lowerback 0.574785 -2.83757 2.56813
upperback -1.53301 -3.66545 3.88338
thorax -1.80318 -1.83309 2.62954
lowerneck -9.67531 -3.66196 -0.00719184
upperneck 2.07476 -4.87584 0.046558
head 2.32653 -2.42406 -0.224546
lclavicle 3.66297e-14 -1.7309e-14 0
lhumerus -56.0145 -31.7871 122.807
lradius 63.2599 0 0
lwrist 17.5417 0 0
lhand 3.48933 11.7223 0
lfingers 7.12502 0 0
lthumb 28.928 39.4976 0
rclavicle 3.66297e-14 -1.7309e-14 0
rhumerus -37.1355 -23.7012 -66.1809
rradius 80.9614 0 0
rwrist -31.644 0 0
rhand -27.7806 -30.6779 0
rfingers 7.12502 0 0
rthumb -1.17411 -780.59 0
244
root 6.24668 15.8509 -25.7335 8.70645 34.9701 -6.54037
lfemur -41.226 30.1325 -11.7504
ltibia 50.0295 0 0
lfoot -17.5333 3.89039 0
ltoes 20.3809 0 0
rfemur -9.84358 -0.085219 4.06364
rtibia 33.7601 0 0
rfoot -43.1384 -24.1937 0
rtoes 55.8689 0 0
lowerback 0.446669 -2.91044 2.37057
upperback -1.52172 -3.77437 3.78033
thorax -1.71097 -1.88547 2.6276
lowerneck -9.63129 -4.10988 -0.00831328
upperneck 2.16033 -5.48023 0.200139
head 2.35104 -2.71966 -0.205941
lclavicle 2.65033e-14 -2.4243e-14 0
lhumerus -55.9814 -31.9883 122.748
lradius 63.157 0 0
lwrist 17.1524 0 0
lhand 3.57729 11.6804 0
lfingers 7.12502 0 0
lthumb 29.012 39.4412 0
rclavicle 2.65033e-14 -2.4243e-14 0
rhumerus -37.8685 -22.0096 -65.5338
rradius 75.7789 0 0
rwrist -20.1691 0 0
rhand -26.0858 -32.5534 0
rfingers 7.12502 0 0
rthumb 0.462437 -782.46 0
245
root 6.36622 15.8914 -25.7223 8.65331 36.8139 -6.10979
lfemur -40.772 28.9657 -12.4761
ltibia 49.2438 0 0
lfoot -17.9062 2.74177 0
ltoes 25.1334 0 0
rfemur -9.35786 1.46782 3.85549
rtibia 34.892 0 0
rfoot -42.2869 -26.4573 0
rtoes 55.7375 0 0
lowerback 0.324917 -2.96679 2.17855
upperback -1.49585 -3.86144 3.66417
thorax -1.60891 -1.92721 2.60822
lowerneck -9.62085 -4.55054 -0.0370013
upperneck 2.22158 -6.07164 0.354445
head 2.37496 -3.00897 -0.182316
lclavicle -3.08062e-15 -2.77623e-14 0
lhumerus -55.8579 -32.2531 122.635
lradius 63.0237 0 0
lwrist 16.8834 0 0
lhand 3.78809 11.7586 0
lfingers 7.12502 0 0
lthumb 29.2133 39.4847 0
rclavicle -3.08062e-15 -2.77623e-14 0
rhumerus -38.6165 -20.2179 -64.9257
rradius 70.6796 0 0
rwrist -8.1349 0 0
rhand -23.0888 -33.2279 0
rfingers 7.12502 0 0
rthumb 3.35661 -783.115 0
